<?xml version="1.0" encoding="utf-8"?>
<!-- Generator: Adobe Illustrator 15.1.0, SVG Export Plug-In  -->
<!DOCTYPE svg PUBLIC "-//W3C//DTD SVG 1.1//EN" "http://www.w3.org/Graphics/SVG/1.1/DTD/svg11.dtd" [
	<!ENTITY ns_flows "http://ns.adobe.com/Flows/1.0/">
]>
<svg version="1.1"
	 xmlns="http://www.w3.org/2000/svg" xmlns:xlink="http://www.w3.org/1999/xlink" xmlns:a="http://ns.adobe.com/AdobeSVGViewerExtensions/3.0/"
	 x="0px" y="0px" width="171px" height="48px" viewBox="-0.139 0 171 48" enable-background="new -0.139 0 171 48"
	 xml:space="preserve">
<defs>
</defs>
<polygon fill="#F3B610" points="144.983,0 150.979,18.447 170.38,18.447 154.686,29.852 160.678,48.301 144.983,36.898 
	129.293,48.301 135.285,29.852 119.59,18.447 138.991,18.447 "/>
<polygon fill="#F3B610" points="85.863,0 91.859,18.447 111.258,18.447 95.565,29.852 101.558,48.301 85.863,36.898 70.171,48.301 
	76.164,29.852 60.471,18.447 79.868,18.447 "/>
<polygon fill="#F3B610" points="25.393,0 31.389,18.447 50.787,18.447 35.094,29.852 41.086,48.301 25.393,36.898 9.7,48.301 
	15.693,29.852 0,18.447 19.398,18.447 "/>
</svg>
