<?xml version="1.0" encoding="utf-8"?>
<!-- Generator: Adobe Illustrator 15.1.0, SVG Export Plug-In  -->
<!DOCTYPE svg PUBLIC "-//W3C//DTD SVG 1.1//EN" "http://www.w3.org/Graphics/SVG/1.1/DTD/svg11.dtd" [
	<!ENTITY ns_flows "http://ns.adobe.com/Flows/1.0/">
]>
<svg version="1.1"
	 xmlns="http://www.w3.org/2000/svg" xmlns:xlink="http://www.w3.org/1999/xlink" xmlns:a="http://ns.adobe.com/AdobeSVGViewerExtensions/3.0/"
	 x="0px" y="0px" width="96px" height="92px" viewBox="0 -1.075 96 92" enable-background="new 0 -1.075 96 92"
	 xml:space="preserve">
<defs>
</defs>
<rect x="5.009" y="8.25" fill="#15929b" width="77.855" height="77.853"/>
<path fill="#FFFFFF" d="M77.857,13.259v67.837H10.019V13.259H77.857 M87.878,3.241H0v87.874h87.878V3.241L87.878,3.241z"/>
<path fill="#ED1C24" d="M38.037,56.54c0,0,24.855-38.546,55.125-56.54l2.229,2.501c0,0-32.13,28.76-50.808,65.52
	c0,0-10.438,6.958-11.368,8.47c0,0-8.229-25.86-18.554-30.035c0,0,4.289-4.871,8.582-6.263c4.291-1.391,5.797,0.81,7.189,2.203
	C31.825,43.787,38.037,56.54,38.037,56.54z"/>
</svg>
